<svg id="eor5QtYS2cX1" xmlns="http://www.w3.org/2000/svg" xmlns:xlink="http://www.w3.org/1999/xlink" viewBox="0 0 178 100" shape-rendering="geometricPrecision" text-rendering="geometricPrecision"><path d="M3,1h7v4h-6v8h6v4h-7v-2h-2L1,3h2v-2ZM14,1h5v4h-1v2h5v-2h-1v-4h5v4h-1v8h1v4h-5v-4h1v-2h-5v2h1v4h-5v-4h1v-8h-1v-4ZM31,1h5v4h-1v8h1v4h-5v-4h1v-8h-1v-4Zm9,12h1v-8h-1v-4h9v2h1v6h-1v2h-5v2h1v4h-5v-4ZM53,7h5v4h-5v-4Zm8,4h1v-2h-1v-6h2v-2h6v2h2v6h-1v2h1v4h-2v2h-6v-2h-2v-4ZM44,7h3v-2h-3v2ZM64,7h4v-2h-4v2Zm0,4v2h4v-2h-4Z" fill="#1aee67" stroke="rgba(63,87,135,0)" stroke-width="0.5"/></svg>
