<svg id="eypucVdEF4S1" xmlns="http://www.w3.org/2000/svg" xmlns:xlink="http://www.w3.org/1999/xlink" viewBox="0 0 178 100" shape-rendering="geometricPrecision" text-rendering="geometricPrecision"><path d="M12,32h7v1h-7v-1Zm7,3h-9v-1h9v1Zm-9,1h3v1h-3v-1Zm0,2h3v1h-3v-1Zm0,2h3v1h-3v-1Zm0,2h3v1h-3v-1Zm0,2h9v1h-9v-1Zm2,2h7v1h-7v-1ZM23,32h5v1h-5v-1Zm0,2h5v1h-5v-1Zm8-2h5v1h-5v-1Zm0,2h5v1h-5v-1Zm-7,2h3v1h-3v-1Zm8,0h3v1h-3v-1Zm-8,2h11v1h-11v-1Zm0,2h11v1h-11v-1Zm0,2h3v1h-3v-1Zm11,0v1h-3v-1h3Zm-4,2h5v1h-5v-1Zm-3,1h-5v-1h5v1Zm0,1v1h-5v-1h5Zm3,0h5v1h-5v-1Zm18,0h5v1h-5v-1Zm-9,0h5v1h-5v-1Zm0-14h5v1h-5v-1Zm0,12h5v1h-5v-1Zm0-10h5v1h-5v-1Zm1,8h3v1h-3v-1Zm0-6h3v1h-3v-1Zm0,4h3v1h-3v-1Zm0-2h3v1h-3v-1Zm8,6h5v1h-5v-1Zm1-2h3v1h-3v-1Zm8-2v1h-8v-1h8Zm-8-2h9v1h-9v-1Zm0-2h3v1h-3v-1Zm9,1h-3v-1h3v1ZM49,34h10v1h-10v-1Zm9-2v1h-9v-1h9Zm4,6h5v1h-5v-1Zm0,2h5v1h-5v-1Zm8-2h10v1h-10v-1Zm1,2h8v1h-8v-1Zm-1,2h3v1h-3v-1Zm7,0h3v1h-3v-1Zm-7,2h10v1h-10v-1Zm0-8h3v1h-3v-1Zm10,1h-3v-1h3v1ZM70,34h10v1h-10v-1Zm2-2h6v1h-6v-1Zm6,14v1h-6v-1h6Z" transform="translate(-10-32)" fill="#1aee67" stroke="rgba(63,87,135,0)" stroke-width="0.5"/></svg>
