<svg id="evjIq7ZBLc01" xmlns="http://www.w3.org/2000/svg" xmlns:xlink="http://www.w3.org/1999/xlink" viewBox="0 0 300 300" shape-rendering="geometricPrecision" text-rendering="geometricPrecision"><path d="M75,120h150v30h60v30h-60v30h30v30h-45v30h-45v-120h-30v120h-45v-30h-45v-30h30v-30h-60v-30h60v-30Zm0,0h-30v-30h30v30ZM15,60h30v30h-30v-30ZM255,90v30h-30v-30h30Zm0-30h30v30h-30v-30Zm0,180h30v30h-30v-30ZM15,240h30v30h-30v-30ZM90,39.96476h30v-30h60v30h30v60h-120v-60Z" fill="#fff" stroke="#fff" stroke-width="0.6"/></svg>
