<svg id="etq81zhf9Aj1" xmlns="http://www.w3.org/2000/svg" xmlns:xlink="http://www.w3.org/1999/xlink" viewBox="0 0 500 500" shape-rendering="geometricPrecision" text-rendering="geometricPrecision"><path d="M160,270L310,120l50,50L210,320l-50-50ZM330,100l-20,20-20-20l20-20l20,20ZM310,80L290,60l40-40l20,20-40,40Zm80-40L370,60L350,40l20-20l20,20ZM360,170l20-20l20,20-20,20-20-20Zm60,20l-20-20l40-40l20,20-40,40Zm40-80l-20,20-20-20l20-20l20,20ZM140,290l-20-20l20-20l20,20-20,20Zm-40-40l20,20-40,40-20-20l40-40Zm110,70l20,20-20,20-20-20l20-20ZM190,420l-20-20l40-40l20,20-40,40Zm-60-20l20-20l20,20-20,20-20-20ZM80,310l20,20-20,20-20-20l20-20Z" fill="none" stroke="#3f5787"/></svg>
